<?xml version="1.0" standalone="no"?><svg xmlns="http://www.w3.org/2000/svg" viewBox="0 0 1440 320"><path fill="#065d77" fill-opacity="1" d="M0,224L24,234.7C48,245,96,267,144,234.7C192,203,240,117,288,112C336,107,384,181,432,192C480,203,528,149,576,112C624,75,672,53,720,42.7C768,32,816,32,864,53.3C912,75,960,117,1008,149.3C1056,181,1104,203,1152,229.3C1200,256,1248,288,1296,266.7C1344,245,1392,171,1416,133.3L1440,96L1440,320L1416,320C1392,320,1344,320,1296,320C1248,320,1200,320,1152,320C1104,320,1056,320,1008,320C960,320,912,320,864,320C816,320,768,320,720,320C672,320,624,320,576,320C528,320,480,320,432,320C384,320,336,320,288,320C240,320,192,320,144,320C96,320,48,320,24,320L0,320Z"></path></svg>