<?xml version="1.0" standalone="no"?><svg xmlns="http://www.w3.org/2000/svg" viewBox="0 0 1440 320"><path fill="#f3f4f5" fill-opacity="1" d="M0,288L15,250.7C30,213,60,139,90,106.7C120,75,150,85,180,80C210,75,240,53,270,42.7C300,32,330,32,360,42.7C390,53,420,75,450,112C480,149,510,203,540,197.3C570,192,600,128,630,117.3C660,107,690,149,720,149.3C750,149,780,107,810,85.3C840,64,870,64,900,53.3C930,43,960,21,990,48C1020,75,1050,149,1080,165.3C1110,181,1140,139,1170,133.3C1200,128,1230,160,1260,160C1290,160,1320,128,1350,112C1380,96,1410,96,1425,96L1440,96L1440,320L1425,320C1410,320,1380,320,1350,320C1320,320,1290,320,1260,320C1230,320,1200,320,1170,320C1140,320,1110,320,1080,320C1050,320,1020,320,990,320C960,320,930,320,900,320C870,320,840,320,810,320C780,320,750,320,720,320C690,320,660,320,630,320C600,320,570,320,540,320C510,320,480,320,450,320C420,320,390,320,360,320C330,320,300,320,270,320C240,320,210,320,180,320C150,320,120,320,90,320C60,320,30,320,15,320L0,320Z"></path></svg>