<?xml version="1.0" standalone="no"?><svg xmlns="http://www.w3.org/2000/svg" viewBox="0 0 1440 320"><path fill="#f3f4f5" fill-opacity="1" d="M0,0L24,26.7C48,53,96,107,144,149.3C192,192,240,224,288,213.3C336,203,384,149,432,133.3C480,117,528,139,576,138.7C624,139,672,117,720,112C768,107,816,117,864,149.3C912,181,960,235,1008,218.7C1056,203,1104,117,1152,112C1200,107,1248,181,1296,218.7C1344,256,1392,256,1416,256L1440,256L1440,320L1416,320C1392,320,1344,320,1296,320C1248,320,1200,320,1152,320C1104,320,1056,320,1008,320C960,320,912,320,864,320C816,320,768,320,720,320C672,320,624,320,576,320C528,320,480,320,432,320C384,320,336,320,288,320C240,320,192,320,144,320C96,320,48,320,24,320L0,320Z"></path></svg>