<?xml version="1.0" standalone="no"?><svg xmlns="http://www.w3.org/2000/svg" viewBox="0 0 1440 320"><path fill="#f8f9fa" fill-opacity="1" d="M0,224L24,234.7C48,245,96,267,144,234.7C192,203,240,117,288,112C336,107,384,181,432,192C480,203,528,149,576,112C624,75,672,53,720,42.7C768,32,816,32,864,53.3C912,75,960,117,1008,149.3C1056,181,1104,203,1152,229.3C1200,256,1248,288,1296,266.7C1344,245,1392,171,1416,133.3L1440,96L1440,0L1416,0C1392,0,1344,0,1296,0C1248,0,1200,0,1152,0C1104,0,1056,0,1008,0C960,0,912,0,864,0C816,0,768,0,720,0C672,0,624,0,576,0C528,0,480,0,432,0C384,0,336,0,288,0C240,0,192,0,144,0C96,0,48,0,24,0L0,0Z"></path></svg>